<mxfile host="app.diagrams.net" modified="2023-09-22T09:50:28.280Z" agent="Mozilla/5.0 (Macintosh; Intel Mac OS X 10_15_7) AppleWebKit/537.36 (KHTML, like Gecko) Chrome/116.0.0.0 Safari/537.36" etag="NRFAbYWNsExBqGr5ZF-z" version="21.7.4" type="github">
  <diagram id="C5RBs43oDa-KdzZeNtuy" name="Page-1">
    <mxGraphModel dx="1275" dy="909" grid="1" gridSize="10" guides="1" tooltips="1" connect="1" arrows="1" fold="1" page="1" pageScale="1" pageWidth="1169" pageHeight="827" math="0" shadow="0">
      <root>
        <mxCell id="WIyWlLk6GJQsqaUBKTNV-0" />
        <mxCell id="WIyWlLk6GJQsqaUBKTNV-1" parent="WIyWlLk6GJQsqaUBKTNV-0" />
        <mxCell id="uV2LBQL4sui9GxUohKkc-7" value="Database" style="strokeWidth=2;html=1;shape=mxgraph.flowchart.database;whiteSpace=wrap;" vertex="1" parent="WIyWlLk6GJQsqaUBKTNV-1">
          <mxGeometry x="520" y="373" width="130" height="82" as="geometry" />
        </mxCell>
        <mxCell id="uV2LBQL4sui9GxUohKkc-14" value="Login&amp;nbsp;" style="rounded=0;whiteSpace=wrap;html=1;" vertex="1" parent="WIyWlLk6GJQsqaUBKTNV-1">
          <mxGeometry x="529" y="710" width="111" height="50" as="geometry" />
        </mxCell>
        <mxCell id="uV2LBQL4sui9GxUohKkc-15" value="" style="endArrow=classic;html=1;rounded=0;exitX=0.5;exitY=0;exitDx=0;exitDy=0;entryX=0.5;entryY=1;entryDx=0;entryDy=0;fontSize=12;fillColor=default;" edge="1" parent="WIyWlLk6GJQsqaUBKTNV-1" source="uV2LBQL4sui9GxUohKkc-14" target="uV2LBQL4sui9GxUohKkc-31">
          <mxGeometry width="50" height="50" relative="1" as="geometry">
            <mxPoint x="590" y="650" as="sourcePoint" />
            <mxPoint x="574" y="600" as="targetPoint" />
          </mxGeometry>
        </mxCell>
        <mxCell id="uV2LBQL4sui9GxUohKkc-16" value="" style="endArrow=classic;html=1;rounded=0;exitX=0.5;exitY=1;exitDx=0;exitDy=0;exitPerimeter=0;fontSize=12;fillColor=default;entryX=0.5;entryY=0;entryDx=0;entryDy=0;" edge="1" parent="WIyWlLk6GJQsqaUBKTNV-1" source="uV2LBQL4sui9GxUohKkc-7" target="uV2LBQL4sui9GxUohKkc-31">
          <mxGeometry width="50" height="50" relative="1" as="geometry">
            <mxPoint x="590" y="460" as="sourcePoint" />
            <mxPoint x="574" y="550" as="targetPoint" />
          </mxGeometry>
        </mxCell>
        <mxCell id="uV2LBQL4sui9GxUohKkc-27" value="View/Update Status" style="ellipse;whiteSpace=wrap;html=1;" vertex="1" parent="WIyWlLk6GJQsqaUBKTNV-1">
          <mxGeometry x="360" y="520" width="80" height="60" as="geometry" />
        </mxCell>
        <mxCell id="uV2LBQL4sui9GxUohKkc-31" value="Login&lt;br&gt;" style="ellipse;whiteSpace=wrap;html=1;" vertex="1" parent="WIyWlLk6GJQsqaUBKTNV-1">
          <mxGeometry x="539.5" y="550" width="80" height="60" as="geometry" />
        </mxCell>
        <mxCell id="uV2LBQL4sui9GxUohKkc-33" value="Add Status" style="ellipse;whiteSpace=wrap;html=1;" vertex="1" parent="WIyWlLk6GJQsqaUBKTNV-1">
          <mxGeometry x="301" y="430" width="80" height="60" as="geometry" />
        </mxCell>
        <mxCell id="uV2LBQL4sui9GxUohKkc-34" value="View Report" style="ellipse;whiteSpace=wrap;html=1;" vertex="1" parent="WIyWlLk6GJQsqaUBKTNV-1">
          <mxGeometry x="380" y="280" width="80" height="60" as="geometry" />
        </mxCell>
        <mxCell id="uV2LBQL4sui9GxUohKkc-35" value="Add Vehicle" style="ellipse;whiteSpace=wrap;html=1;" vertex="1" parent="WIyWlLk6GJQsqaUBKTNV-1">
          <mxGeometry x="720" y="320" width="80" height="60" as="geometry" />
        </mxCell>
        <mxCell id="uV2LBQL4sui9GxUohKkc-36" value="Vehicle Search/Result" style="rounded=0;whiteSpace=wrap;html=1;" vertex="1" parent="WIyWlLk6GJQsqaUBKTNV-1">
          <mxGeometry x="529.5" y="100" width="111" height="50" as="geometry" />
        </mxCell>
        <mxCell id="uV2LBQL4sui9GxUohKkc-37" value="Vehicle" style="rounded=0;whiteSpace=wrap;html=1;" vertex="1" parent="WIyWlLk6GJQsqaUBKTNV-1">
          <mxGeometry x="840" y="190" width="111" height="50" as="geometry" />
        </mxCell>
        <mxCell id="uV2LBQL4sui9GxUohKkc-38" value="Customer" style="rounded=0;whiteSpace=wrap;html=1;" vertex="1" parent="WIyWlLk6GJQsqaUBKTNV-1">
          <mxGeometry x="910" y="480" width="111" height="50" as="geometry" />
        </mxCell>
        <mxCell id="uV2LBQL4sui9GxUohKkc-41" value="Parts Status" style="rounded=0;whiteSpace=wrap;html=1;" vertex="1" parent="WIyWlLk6GJQsqaUBKTNV-1">
          <mxGeometry x="190" y="570" width="111" height="50" as="geometry" />
        </mxCell>
        <mxCell id="uV2LBQL4sui9GxUohKkc-42" value="Report" style="rounded=0;whiteSpace=wrap;html=1;" vertex="1" parent="WIyWlLk6GJQsqaUBKTNV-1">
          <mxGeometry x="200" y="140" width="111" height="50" as="geometry" />
        </mxCell>
        <mxCell id="uV2LBQL4sui9GxUohKkc-44" value="" style="endArrow=classic;html=1;rounded=0;entryX=1;entryY=1;entryDx=0;entryDy=0;exitX=0;exitY=0;exitDx=0;exitDy=0;" edge="1" parent="WIyWlLk6GJQsqaUBKTNV-1" source="uV2LBQL4sui9GxUohKkc-34" target="uV2LBQL4sui9GxUohKkc-42">
          <mxGeometry width="50" height="50" relative="1" as="geometry">
            <mxPoint x="270" y="280" as="sourcePoint" />
            <mxPoint x="320" y="230" as="targetPoint" />
          </mxGeometry>
        </mxCell>
        <mxCell id="uV2LBQL4sui9GxUohKkc-45" value="" style="endArrow=classic;html=1;rounded=0;entryX=1;entryY=1;entryDx=0;entryDy=0;exitX=0;exitY=0.15;exitDx=0;exitDy=0;exitPerimeter=0;" edge="1" parent="WIyWlLk6GJQsqaUBKTNV-1" source="uV2LBQL4sui9GxUohKkc-7" target="uV2LBQL4sui9GxUohKkc-34">
          <mxGeometry width="50" height="50" relative="1" as="geometry">
            <mxPoint x="450" y="373" as="sourcePoint" />
            <mxPoint x="500" y="323" as="targetPoint" />
          </mxGeometry>
        </mxCell>
        <mxCell id="uV2LBQL4sui9GxUohKkc-46" value="Lookup/update Customer" style="ellipse;whiteSpace=wrap;html=1;" vertex="1" parent="WIyWlLk6GJQsqaUBKTNV-1">
          <mxGeometry x="740" y="440" width="80" height="60" as="geometry" />
        </mxCell>
        <mxCell id="uV2LBQL4sui9GxUohKkc-47" value="Add Customer" style="ellipse;whiteSpace=wrap;html=1;" vertex="1" parent="WIyWlLk6GJQsqaUBKTNV-1">
          <mxGeometry x="710" y="510" width="80" height="60" as="geometry" />
        </mxCell>
        <mxCell id="uV2LBQL4sui9GxUohKkc-48" value="View Vehicle" style="ellipse;whiteSpace=wrap;html=1;" vertex="1" parent="WIyWlLk6GJQsqaUBKTNV-1">
          <mxGeometry x="545" y="220" width="80" height="60" as="geometry" />
        </mxCell>
      </root>
    </mxGraphModel>
  </diagram>
</mxfile>
